<svg xmlns="http://www.w3.org/2000/svg" fill="none" viewBox="197.5 150.5 299.96 323">
<path d="M362.935 151H424.16C432.513 151 439.986 156.191 442.902 164.018L496.642 308.276C497.056 309.389 497.061 310.613 496.656 311.729L496.354 312.558L496.352 312.566L442.838 459.831C439.965 467.737 432.452 473 424.04 473H362.825C359.382 473 356.97 469.602 358.104 466.352L413.284 308.276L358.239 157.717C357.047 154.455 359.462 151 362.935 151Z" fill="white"/>
<path d="M203.115 151H264.339C272.692 151 280.165 156.191 283.081 164.018L336.821 308.276C337.235 309.389 337.24 310.613 336.835 311.729L336.533 312.558L336.53 312.566L283.017 459.831C280.144 467.737 272.631 473 264.22 473H203.004C199.562 473 197.149 469.602 198.283 466.352L253.463 308.276L198.419 157.717C197.226 154.455 199.641 151 203.115 151Z" fill="white"/>
<path d="M413.284 308.276L358.239 157.717C357.047 154.455 359.462 151 362.935 151H424.16C432.513 151 439.986 156.191 442.902 164.018L496.642 308.276C497.056 309.389 497.061 310.613 496.656 311.729L442.838 459.831C439.965 467.737 432.452 473 424.04 473H362.825C359.382 473 356.97 469.602 358.104 466.352L384.534 390.638L413.284 308.276ZM413.284 308.276L358.308 466.249C357.086 469.517 359.502 473 362.991 473H424.04M413.284 308.276L358.31 157.752C357.087 154.484 359.503 151 362.993 151H424.16M413.284 308.276L358.104 466.352C356.97 469.602 359.382 473 362.825 473H424.04M413.284 308.276L358.239 157.717C357.047 154.455 359.462 151 362.935 151H424.16M424.16 151C432.513 151 439.986 156.191 442.902 164.018L496.642 308.276M496.642 308.276C497.056 309.389 497.061 310.613 496.656 311.729M496.642 308.276L496.652 310.838C496.654 311.425 496.554 312.007 496.354 312.558M496.656 311.729L442.838 459.831M496.656 311.729L496.354 312.558M442.838 459.831C439.965 467.737 432.452 473 424.04 473M442.838 459.831L496.352 312.566L496.354 312.558M253.463 308.276L198.283 466.352C197.149 469.602 199.562 473 203.004 473H264.22C272.631 473 280.144 467.737 283.017 459.831L336.53 312.566L336.533 312.558L336.835 311.729C337.24 310.613 337.235 309.389 336.821 308.276L283.081 164.018C280.165 156.191 272.692 151 264.339 151H203.115C199.641 151 197.226 154.455 198.419 157.717L253.463 308.276Z" stroke="white"/>
<path d="M401.284 274.5H324.784V344.5H401.284L413.784 308.5L401.284 274.5Z" fill="white" stroke="white"/>
</svg>